<?xml version="1.0" encoding="UTF-8" standalone="no"?>
<svg
   width="22.21628"
   height="11.964845"
   fill="currentColor"
   viewBox="0 0 22.21628 11.964845"
   xmlns="http://www.w3.org/2000/svg"
   xmlns:svg="http://www.w3.org/2000/svg">
  <path
     id="path2-2"
     d="m 17.978,0 v 0.9648438 h 0.273437 c 0.964,0 1.353516,0.4431093 1.353516,1.5371093 v 1.7988281 c 0,0.984 0.493047,1.4966094 1.498047,1.5996094 V 6.0625 c -1.005,0.103 -1.498047,0.6156094 -1.498047,1.5996094 v 1.7988289 c 0,1.0939987 -0.389516,1.5371077 -1.353516,1.5371077 H 17.978 v 0.964844 h 0.376953 c 1.613,0 2.371094,-0.758563 2.371094,-2.3515627 v -1.523437 c 0,-1.0940001 0.376234,-1.4570309 1.490234,-1.4570309 V 5.3320312 c -1.114,0 -1.490234,-0.3610781 -1.490234,-1.4550781 V 2.3515625 C 20.726047,0.7585625 19.966953,0 18.354953,0 Z"
     style="fill:#ced0d6;fill-opacity:1" />
  <path
     id="path2-2-6"
     d="m 14.310642,0 v 0.9648438 h 0.273437 c 0.964,0 1.353516,0.4431093 1.353516,1.5371093 v 1.7988281 c 0,0.984 0.493047,1.4966094 1.498047,1.5996094 V 6.0625 c -1.005,0.103 -1.498047,0.6156094 -1.498047,1.5996094 v 1.7988289 c 0,1.0939987 -0.389516,1.5371077 -1.353516,1.5371077 h -0.273437 v 0.964844 h 0.376953 c 1.613,0 2.371094,-0.758563 2.371094,-2.3515617 v -1.523437 c 0,-1.0940011 0.376234,-1.4570319 1.490234,-1.4570319 V 5.3320312 c -1.114,0 -1.490234,-0.3610781 -1.490234,-1.4550781 V 2.3515625 C 17.058689,0.7585625 16.299595,0 14.687595,0 Z"
     style="fill:#ced0d6;fill-opacity:1" />
  <path
     id="path2-5"
     d="m 3.8613281,0 c -1.612,0 -2.3710938,0.7605156 -2.3710938,2.3535156 V 3.8769531 C 1.4902343,4.9709531 1.114,5.3320312 0,5.3320312 v 1.3007813 c 1.1139999,0 1.4902343,0.3610781 1.4902343,1.4550788 v 1.523438 c 0,1.5929987 0.7580938,2.3535147 2.3710938,2.3535147 H 4.2382812 V 11 H 3.9648437 c -0.964,0 -1.3535156,-0.443109 -1.3535156,-1.5371087 V 7.6640625 c 0,-0.984 -0.4910938,-1.4966094 -1.4960938,-1.5996094 V 5.9003906 c 1.005,-0.102 1.4960938,-0.6146094 1.4960938,-1.5996094 v -1.796875 c 0,-1.094 0.3895156,-1.5371094 1.3535156,-1.5371094 H 4.2382812 V 0 Z"
     style="fill:#ced0d6;fill-opacity:1" />
  <path
     id="path2-5-3"
     d="m 7.490328,0 c -1.612,0 -2.3710937,0.7605156 -2.3710937,2.3535156 v 1.5234375 c 0,1.094 -0.3762343,1.4550781 -1.4902343,1.4550781 v 1.3007813 c 1.1139999,0 1.4902343,0.3610781 1.4902343,1.4550788 v 1.523438 c 0,1.5929987 0.7580937,2.3535147 2.3710937,2.3535147 H 7.8672812 V 11 H 7.5938437 C 6.6298437,11 6.240328,10.556891 6.240328,9.4628913 V 7.6640625 c 0,-0.984 -0.4910937,-1.4966094 -1.4960937,-1.5996094 V 5.9003906 c 1.005,-0.102 1.4960937,-0.6146094 1.4960937,-1.5996094 v -1.796875 c 0,-1.094 0.3895157,-1.5371094 1.3535157,-1.5371094 H 7.8672812 V 0 Z"
     style="fill:#ced0d6;fill-opacity:1" />
  <path
     d="M 13.991531,6.5179657 8.8701921,9.4895174 C 8.4355664,9.7414394 7.8777967,9.4363965 7.8777967,8.9285287 V 2.9854245 c 0,-0.5070633 0.5569648,-0.8129111 0.9923954,-0.5601843 l 5.1213389,2.9715521 a 0.64549967,0.64549967 0 0 1 0,1.1211734"
     id="path2"
     style="fill:#ced0d6;fill-opacity:1;stroke-width:0.804862" />
</svg>
